<?xml version="1.0" standalone="no"?>
<!DOCTYPE svg PUBLIC "-//W3C//DTD SVG 20010904//EN"
 "http://www.w3.org/TR/2001/REC-SVG-20010904/DTD/svg10.dtd">
<svg version="1.0" xmlns="http://www.w3.org/2000/svg"
 width="700.000000pt" height="700.000000pt" viewBox="0 0 700.000000 700.000000"
 preserveAspectRatio="xMidYMid meet">
<metadata>
Created by potrace 1.14, written by Peter Selinger 2001-2017
</metadata>
<g transform="translate(0.000000,700.000000) scale(0.100000,-0.100000)"
fill="#000000" stroke="none">
<path d="M1162 4605 c-4 -5 -7 -551 -7 -1212 l0 -1203 35 0 c61 -1 403 -1 457
-1 l53 1 2 513 3 512 455 0 455 0 1 -508 c1 -279 4 -510 6 -512 6 -6 538 -11
539 -5 3 13 4 2397 1 2410 -3 13 -40 15 -267 14 -146 0 -267 -3 -271 -7 -4 -3
-6 -212 -6 -464 l0 -458 -459 0 -459 0 0 465 0 465 -266 0 c-166 0 -268 -4
-272 -10z"/>
<path d="M3737 4610 c-9 -4 -12 -276 -12 -1213 l0 -1207 75 -1 c77 0 437 0
455 1 7 0 10 266 10 791 l0 791 39 -43 c21 -24 75 -89 118 -144 44 -55 87
-109 96 -120 169 -204 586 -838 801 -1217 31 -55 34 -58 72 -58 21 0 123 -1
227 -1 l187 0 3 1207 c1 716 -2 1210 -7 1213 -7 5 -459 6 -518 2 -10 -1 -13
-154 -15 -712 l-3 -711 -50 73 c-368 543 -748 1040 -989 1293 l-56 59 -210 1
c-116 1 -216 -1 -223 -4z"/>
</g>
</svg>
